<svg width="64" height="100" viewBox="0 0 64 100" fill="none" xmlns="http://www.w3.org/2000/svg">
<path d="M63.5145 46.9522L54.1489 37.5866C53.5016 36.9392 52.4553 36.9392 51.8079 37.5866L47.126 42.2685C46.4786 42.9159 46.4786 43.9622 47.126 44.6095L48.2965 45.78L45.1509 48.9256C40.4192 45.3231 34.537 43.1559 28.1448 43.1559C12.6254 43.1559 0 55.7813 0 71.3007C0 86.8201 12.6254 99.4455 28.1448 99.4455C43.6642 99.4455 56.2896 86.8201 56.2896 71.3007C56.2896 65.7595 54.6572 60.6024 51.8824 56.2416L55.3194 52.8046L56.4916 53.9768C57.1389 54.6241 58.1852 54.6241 58.8325 53.9768L63.5145 49.2948C64.1618 48.6475 64.1618 47.5995 63.5145 46.9522ZM28.1448 96.1343C14.4515 96.1343 3.31115 84.994 3.31115 71.3007C3.31115 57.6074 14.4515 46.4671 28.1448 46.4671C41.8381 46.4671 52.9784 57.6074 52.9784 71.3007C52.9784 84.994 41.8381 96.1343 28.1448 96.1343ZM49.9322 53.5116C49.2319 52.6556 48.4736 51.851 47.6789 51.0828L50.6374 48.1227L52.9784 50.4636L49.9322 53.5116ZM57.662 50.4636L50.6374 43.439L52.9784 41.0997L60.003 48.1227L57.662 50.4636Z" fill="black"/>
<path d="M28.1448 49.7783C16.2776 49.7783 6.62231 59.4336 6.62231 71.3008C6.62231 83.168 16.2776 92.8233 28.1448 92.8233C40.012 92.8233 49.6673 83.168 49.6673 71.3008C49.6673 59.4336 40.012 49.7783 28.1448 49.7783ZM29.8004 89.4277V82.8898H26.4892V89.4277C17.7676 88.6363 10.8076 81.678 10.0179 72.9564H16.5558V69.6452H10.0179C10.8093 60.9237 17.7676 53.9636 26.4892 53.1739V59.7118H29.8004V53.1739C38.5219 53.9653 45.482 60.9237 46.2717 69.6452H39.7338V72.9564H46.2717C45.482 81.678 38.5219 88.638 29.8004 89.4277Z" fill="black"/>
<path d="M29.8004 63.0229H26.4893V71.3008C26.4893 72.2164 27.2293 72.9564 28.1448 72.9564H36.4227V69.6453H29.8004V63.0229Z" fill="black"/>
<path d="M26.9742 39.3597C27.297 39.6826 27.7208 39.8448 28.1447 39.8448C28.5685 39.8448 28.9923 39.6826 29.3152 39.3597L45.8709 22.804C48.394 20.2809 49.7847 16.9234 49.7847 13.3556C49.7847 9.78784 48.394 6.43034 45.8709 3.90724C41.0366 -0.928697 33.3846 -1.27471 28.1447 2.86423C22.9048 -1.27471 15.2527 -0.928697 10.4184 3.90724C7.89532 6.43034 6.50464 9.78784 6.50464 13.3556C6.50464 16.9234 7.89532 20.2809 10.4184 22.804L26.9742 39.3597ZM12.7594 6.24822C14.6583 4.35093 17.1831 3.30461 19.8668 3.30461C22.5505 3.30461 25.0752 4.35093 26.9742 6.24822C27.6215 6.89555 28.6678 6.89555 29.3152 6.24822C31.2141 4.35093 33.7389 3.30461 36.4225 3.30461C39.1062 3.30461 41.631 4.35093 43.5299 6.24822C45.4289 8.14551 46.4735 10.6719 46.4735 13.3556C46.4735 16.0393 45.4272 18.564 43.5299 20.463L28.1447 35.8483L12.7594 20.463C10.8621 18.5657 9.81579 16.0393 9.81579 13.3556C9.81579 10.6719 10.8621 8.14717 12.7594 6.24822Z" fill="black"/>
<path d="M22.692 20.4624L20.3507 22.8037L28.6284 31.0814L30.9697 28.7401L22.692 20.4624Z" fill="black"/>
<path d="M17.7257 15.4958L15.3844 17.8372L17.8674 20.3201L20.2087 17.9788L17.7257 15.4958Z" fill="black"/>
</svg>
