<svg width="101" height="99" viewBox="0 0 101 99" fill="none" xmlns="http://www.w3.org/2000/svg">
<path d="M49.1907 54.7462C49.5182 55.0737 49.9481 55.2383 50.378 55.2383C50.8079 55.2383 51.2378 55.0737 51.5652 54.7462L56.2554 50.056L60.9456 54.7462C61.2731 55.0737 61.703 55.2383 62.1328 55.2383C62.5627 55.2383 62.9926 55.0737 63.3201 54.7462L76.7542 41.3121C80.5913 37.475 81.0464 31.5203 78.1262 27.1777C82.0859 20.0576 80.8651 11.1424 75.075 5.35232C68.3209 -1.40168 57.5619 -1.76105 50.378 4.26416C43.1941 -1.76273 32.4334 -1.40168 25.681 5.35232C18.5441 12.4892 18.5441 24.0996 25.681 31.2365L49.1907 54.7462ZM74.3797 38.9376L62.1328 51.1845L49.886 38.9376C46.8381 35.8898 46.8381 30.9259 49.886 27.878C51.4107 26.3532 53.4141 25.5925 55.4158 25.5925C57.4175 25.5925 59.4208 26.3532 60.9456 27.878C61.6022 28.5346 62.6635 28.5346 63.3201 27.878C66.368 24.8284 71.3319 24.8284 74.3797 27.878C77.4276 30.9259 77.4276 35.8898 74.3797 38.9376ZM28.0555 7.7268C33.8826 1.89807 43.3637 1.89807 49.1907 7.7268C49.8473 8.38339 50.9086 8.38339 51.5652 7.7268C57.3923 1.89807 66.8734 1.90143 72.7005 7.7268C77.1774 12.2037 78.3143 18.9695 75.6778 24.6101C71.7063 21.527 66.1379 21.4548 62.1328 24.4724C57.7584 21.1777 51.4964 21.522 47.5115 25.5035C43.1521 29.8629 43.1521 36.9527 47.5115 41.3121L53.8809 47.6816L50.378 51.1845L28.0555 28.862C22.2285 23.035 22.2285 13.5539 28.0555 7.7268Z" fill="black"/>
<path d="M87.3218 61.9552C86.1732 61.9552 85.0531 62.1131 83.9633 62.3952V60.2759C83.9633 59.3473 83.211 58.5967 82.284 58.5967H18.4719C17.545 58.5967 16.7927 59.3473 16.7927 60.2759V62.3952C15.7028 62.1131 14.5827 61.9552 13.4341 61.9552C6.02688 61.9552 0 67.9821 0 75.3893V77.0686C0 87.2533 8.28718 95.5405 18.4719 95.5405H20.6281C22.7205 97.6194 25.4946 98.8991 28.5475 98.8991H48.6987C49.2512 98.8991 49.8037 98.8319 50.3494 98.7496C50.9086 98.8386 51.4762 98.8991 52.0572 98.8991H72.2084C75.2613 98.8991 78.0355 97.6194 80.1278 95.5405H82.284C92.4688 95.5405 100.756 87.2533 100.756 77.0686V75.3893C100.756 67.9821 94.729 61.9552 87.3218 61.9552ZM16.7927 84.8772C12.8581 83.475 10.0756 79.6967 10.0756 75.3893C10.0756 73.5371 11.5819 72.0308 13.4341 72.0308C15.2864 72.0308 16.7927 73.5371 16.7927 75.3893V84.8772ZM3.35853 77.0686V75.3893C3.35853 69.8326 7.87744 65.3137 13.4341 65.3137C14.5945 65.3137 15.7179 65.5102 16.7927 65.8914V69.6076C15.8002 69.0283 14.6633 68.6723 13.4341 68.6723C9.72966 68.6723 6.71706 71.6849 6.71706 75.3893C6.71706 81.606 11.0563 87.0115 16.9958 88.449C17.2192 89.7706 17.6239 91.0233 18.1932 92.1686C9.98827 92.0174 3.35853 85.3088 3.35853 77.0686ZM28.5475 95.5405C24.7524 95.5405 21.5399 92.7026 20.5038 88.8235H36.9438V85.4649H20.1512V61.9552H40.3024V86.1366C40.3024 89.8596 41.7868 93.2047 44.1378 95.5405H28.5475ZM72.2084 95.5405H52.0572C47.4275 95.5405 43.6609 91.3222 43.6609 86.1366V61.9552H80.6048V85.4649H53.7365V88.8235H80.2521C79.216 92.7026 76.0036 95.5405 72.2084 95.5405ZM83.9633 75.3893C83.9633 73.5371 85.4696 72.0308 87.3218 72.0308C89.174 72.0308 90.6803 73.5371 90.6803 75.3893C90.6803 79.7672 87.8709 83.4901 83.9633 84.8772V75.3893ZM97.3974 77.0686C97.3974 85.3088 90.7677 92.0174 82.5645 92.1686C83.1354 91.0183 83.5401 89.7605 83.7635 88.4339C89.6493 87.0065 94.0389 81.7084 94.0389 75.3893C94.0389 71.6849 91.0263 68.6723 87.3218 68.6723C86.0926 68.6723 84.9557 69.0283 83.9633 69.6059V65.8897C85.038 65.5102 86.1614 65.3137 87.3218 65.3137C92.8785 65.3137 97.3974 69.8326 97.3974 75.3893V77.0686Z" fill="black"/>
<path d="M31.3779 66.4651H28.0194V69.8236H31.3779V66.4651Z" fill="black"/>
</svg>
