<svg width="77" height="71" viewBox="0 0 77 71" fill="none" xmlns="http://www.w3.org/2000/svg">
<g filter="url(#filter0_d_8_279)">
<path d="M23.0885 14.318L21.0885 10.8539C20.8125 10.3759 20.2005 10.2119 19.7224 10.4879L18.8564 10.9879L17.3564 8.38982C17.0804 7.91178 16.4684 7.7478 15.9904 8.0238L14.2583 9.0238C13.407 9.5153 12.6372 10.1179 11.9524 10.8078C9.79956 10.321 7.48194 10.6267 5.4641 11.7917L4.59808 12.2917C4.12003 12.5677 3.95605 13.1797 4.23205 13.6578L5.73205 16.2558L4.86603 16.7558C4.38798 17.0318 4.224 17.6438 4.5 18.1219L8.5 25.0501C9.673 27.0818 11.7708 28.3393 14.0384 28.5128C13.6487 30.1939 13.9211 31.9557 14.2845 33.0311C14.397 33.368 14.684 33.6191 15.0329 33.6914C15.383 33.7617 15.7431 33.6416 15.9793 33.3747C15.9961 33.3558 17.3697 31.8168 18.7328 30.7758L20.1953 33.3089L18.4632 34.3089L19.4632 36.041L21.1953 35.041L24.1953 40.2371L22.4632 41.2371L23.4632 42.9692L25.1953 41.9692L26.3513 43.9714C24.4906 44.4025 22.6289 45.452 22.3656 45.604C21.8875 45.88 21.7236 46.492 21.9996 46.97C22.2381 47.3831 24.3936 51.0207 26.6599 51.6279C27.7213 51.9123 28.8058 51.7468 29.6979 51.2318C29.91 51.1093 30.1058 50.9605 30.2938 50.8L32.1953 54.0935L30.4632 55.0935L31.4632 56.8256L33.1953 55.8256L36.6953 61.8877C36.9713 62.3658 37.5833 62.5298 38.0613 62.2538L41.5254 60.2538C42.0035 59.9778 42.1674 59.3658 41.8914 58.8877L40.3914 56.2897L42.1235 55.2897L41.1235 53.5576L39.3914 54.5576L36.3914 49.3615L38.1235 48.3615L37.1235 46.6294L35.3914 47.6294L34.7344 46.4915C34.8258 46.4457 34.9236 46.4111 35.0119 46.3601C36.1378 45.7101 36.9774 44.6364 37.3276 43.3269C38.2082 40.0403 35.1855 36.0627 34.8372 35.6195C34.5627 35.2699 34.0909 35.1428 33.678 35.3096C33.5699 35.3524 31.4105 36.2342 29.6906 37.7572L28.3906 35.5056L30.1226 34.5056L29.1226 32.7735L27.3906 33.7735L23.9276 27.7754C25.5112 27.1163 27.5307 26.6963 27.555 26.6903C27.9042 26.6192 28.1884 26.3674 28.3025 26.029C28.4152 25.6902 28.3404 25.3166 28.1049 25.0507C27.2422 24.0685 25.5311 22.7389 23.5493 22.3982C24.6735 19.8034 24.523 16.8027 23.0885 14.318ZM21.3564 15.318C22.5389 17.3662 22.5856 19.8611 21.5344 21.9564C21.612 20.6207 21.3234 19.2608 20.6244 18.0501C19.7659 16.5631 18.5393 15.4226 17.1305 14.6586C17.6834 14.1062 18.3002 13.6185 18.9904 13.22L19.8564 12.72L21.3564 15.318ZM16.1244 10.2558L17.1499 12.0321C16.7539 12.3103 16.3802 12.615 16.0265 12.9404C15.4279 12.3935 14.7714 11.9365 14.0725 11.5779C14.4441 11.2756 14.8383 10.9983 15.2583 10.7558L16.1244 10.2558ZM6.4641 13.5238C8.69672 12.2348 11.3906 12.3168 13.5257 13.5829C11.7737 13.4443 9.96432 13.8123 8.33013 14.7558L7.4641 15.2558L6.4641 13.5238ZM6.73205 17.9879L9.33013 16.4879C12.673 14.5579 16.9623 15.7072 18.8923 19.0501C19.9198 20.8298 19.7393 23.0551 18.4706 24.6537C17.8318 24.5652 17.1623 24.6677 16.5622 25.0142C15.8477 25.4267 15.3141 25.9484 14.9084 26.5278C13.0229 26.658 11.1936 25.7154 10.2321 24.0501L6.73205 17.9879ZM17.5622 26.7462C18.0394 26.4707 18.6513 26.6347 18.9277 27.1114C18.9277 27.1114 18.9277 27.1114 18.9282 27.1123C18.9287 27.1131 18.9282 27.1123 18.9287 27.1131C19.2042 27.5903 19.0394 28.2028 18.5622 28.4783C17.6321 29.0153 16.6306 29.8868 15.8525 30.6351C15.763 29.338 15.9999 27.6482 17.5622 26.7462ZM27.1787 49.6945C26.3358 49.4686 25.1433 48.0971 24.2931 46.8525C25.1945 46.4198 26.435 45.9184 27.4145 45.809L29.259 49.0038C28.7726 49.6172 27.9646 49.9058 27.1787 49.6945ZM37.9282 60.0212L20.3362 29.551C20.5936 29.2488 20.7844 28.9054 20.9042 28.5348C21.285 28.6164 21.6779 28.6228 22.0683 28.551L39.6603 59.0212L37.9282 60.0212ZM33.7214 37.4888C34.5941 38.7944 35.841 41.1541 35.3974 42.8097C35.1602 43.6949 34.5464 44.3957 33.7363 44.7606L32.3923 42.4328L34.1244 41.4328L33.1244 39.7007L31.3923 40.7007L30.7193 39.535C31.6703 38.5922 32.9422 37.8752 33.7214 37.4888ZM22.0263 26.4783C21.5491 26.7538 20.9371 26.5898 20.6608 26.1131C20.6608 26.1131 20.6608 26.1131 20.6603 26.1123C20.6598 26.1114 20.6603 26.1123 20.6598 26.1114C20.3843 25.6342 20.5491 25.0217 21.0263 24.7462C22.5886 23.8442 24.1704 24.484 25.2489 25.2101C24.2118 25.5098 22.9555 25.9418 22.0263 26.4783Z" fill="black"/>
<path d="M69.8826 23.7987L71.8826 20.3346C72.1586 19.8566 71.9947 19.2446 71.5166 18.9686L70.6506 18.4686L72.1506 15.8705C72.4266 15.3925 72.2626 14.7805 71.7846 14.5045L70.0525 13.5045C69.2012 13.013 68.2944 12.6477 67.3546 12.3995C66.6997 10.2917 65.2761 8.43746 63.2583 7.27246L62.3923 6.77246C61.9142 6.49646 61.3022 6.66044 61.0262 7.13849L59.5262 9.73656L58.6602 9.23656C58.1822 8.96056 57.5702 9.12454 57.2942 9.60259L53.2942 16.5308C52.1212 18.5625 52.081 21.008 53.0646 23.0585C51.4139 23.5616 50.0243 24.6784 49.2747 25.5308C49.0392 25.7967 48.9652 26.1708 49.0771 26.5091C49.1912 26.8474 49.4753 27.0993 49.8245 27.1704C49.8493 27.1755 51.8689 27.5955 53.452 28.2555L51.9895 30.7886L50.2574 29.7886L49.2574 31.5207L50.9895 32.5207L47.9895 37.7168L46.2574 36.7168L45.2574 38.4489L46.9895 39.4489L45.8335 41.4511C44.5297 40.0552 42.6901 38.9677 42.4268 38.8157C41.9487 38.5397 41.3368 38.7037 41.0608 39.1817C40.8223 39.5948 38.7498 43.2804 39.3571 45.5466C39.6415 46.608 40.327 47.4646 41.219 47.9796C41.4312 48.1021 41.658 48.1972 41.891 48.2797L39.9895 51.5732L38.2574 50.5732L37.2574 52.3053L38.9895 53.3053L35.4895 59.3675C35.2135 59.8455 35.3775 60.4575 35.8555 60.7335L39.3196 62.7335C39.7976 63.0095 40.4096 62.8455 40.6856 62.3675L42.1856 59.7694L43.9177 60.7694L44.9177 59.0373L43.1856 58.0373L46.1856 52.8412L47.9177 53.8412L48.9177 52.1091L47.1856 51.1091L47.8426 49.9712C47.928 50.0274 48.0068 50.0948 48.0951 50.1458C49.221 50.7958 50.5706 50.9861 51.8798 50.6346C55.1664 49.754 57.0997 45.1474 57.3094 44.6242C57.4749 44.2117 57.3491 43.7395 56.9982 43.4653C56.9071 43.3931 55.0637 41.9639 52.8848 41.2359L54.1848 38.9843L55.9168 39.9843L56.9168 38.2522L55.1848 37.2522L58.6478 31.2541C60.0104 32.296 61.3839 33.835 61.4012 33.853C61.6374 34.1199 61.9976 34.2401 62.3477 34.1697C62.6974 34.098 62.9836 33.8463 63.0961 33.5094C63.5154 32.2712 63.8113 30.1246 63.1154 28.2379C65.9247 27.9141 68.4481 26.2834 69.8826 23.7987ZM68.1506 22.7987C66.9681 24.8469 64.8308 26.1348 62.4906 26.2721C63.6862 25.6714 64.7195 24.7415 65.4185 23.5308C66.277 22.0438 66.6515 20.4113 66.6087 18.8093C67.3636 19.0119 68.0943 19.3022 68.7846 19.7007L69.6506 20.2007L68.1506 22.7987ZM69.9185 15.7366L68.893 17.5128C68.4541 17.309 68.0034 17.1377 67.5447 16.9941C67.7191 16.2022 67.7866 15.4052 67.7477 14.6206C68.1953 14.7913 68.6325 14.9941 69.0525 15.2366L69.9185 15.7366ZM62.2583 9.00451C64.4909 10.2935 65.7668 12.6675 65.7379 15.1496C64.9819 13.5631 63.7585 12.1801 62.1243 11.2366L61.2583 10.7366L62.2583 9.00451ZM58.5262 11.4686L61.1243 12.9686C64.4672 14.8986 65.6165 19.1879 63.6865 22.5308C62.659 24.3105 60.6415 25.2669 58.6228 24.9674C58.38 24.3699 57.9565 23.8414 57.3564 23.4949C56.6419 23.0824 55.9233 22.8811 55.2186 22.8195C54.1631 21.2517 54.0647 19.1962 55.0262 17.5308L58.5262 11.4686ZM56.3564 25.2269C56.8335 25.5024 56.9975 26.1144 56.7229 26.5921C56.7229 26.5921 56.7229 26.5921 56.7224 26.593C56.7219 26.5938 56.7224 26.593 56.7219 26.5938C56.4464 27.071 55.8335 27.2345 55.3564 26.959C54.4263 26.422 53.1708 25.9905 52.1337 25.6908C53.2122 24.9647 54.7941 24.3249 56.3564 25.2269ZM41.2909 45.0292C41.065 44.1863 41.6565 42.4679 42.3093 41.1092C43.1347 41.6735 44.1892 42.4971 44.7737 43.2907L42.9292 46.4855C42.1547 46.3709 41.5008 45.8155 41.2909 45.0292ZM37.7224 59.5019L55.3144 29.0317C55.7048 29.1035 56.0976 29.0971 56.4784 29.0155C56.5982 29.3861 56.789 29.7295 57.0464 30.0317L39.4544 60.5019L37.7224 59.5019ZM55.1326 44.5926C54.4383 46.0011 53.0182 48.2608 51.3626 48.7044C50.4774 48.9416 49.5636 48.7604 48.8425 48.2414L50.1865 45.9135L51.9185 46.9135L52.9185 45.1814L51.1865 44.1814L51.8595 43.0158C53.1515 43.3679 54.4084 44.1109 55.1326 44.5926ZM58.8205 28.959C58.3433 28.6835 58.1793 28.0715 58.4539 27.5938C58.4539 27.5938 58.4539 27.5938 58.4544 27.593C58.4549 27.5921 58.4544 27.593 58.4549 27.5921C58.7304 27.1149 59.3433 26.9514 59.8205 27.2269C61.3828 28.1289 61.6196 29.8187 61.5301 31.1158C60.752 30.3675 59.7497 29.4955 58.8205 28.959Z" fill="black"/>
<path d="M45.6423 11V7C45.6423 6.448 45.1943 6 44.6423 6H43.6423V3C43.6423 2.448 43.1943 2 42.6423 2H40.6423C39.6593 2 38.6913 2.137 37.7533 2.392C36.1323 0.894 33.9723 0 31.6423 0H30.6423C30.0903 0 29.6423 0.448 29.6423 1V4H28.6423C28.0903 4 27.6423 4.448 27.6423 5V13C27.6423 15.346 28.8303 17.484 30.7073 18.768C29.5293 20.029 28.8843 21.691 28.6613 22.804C28.5903 23.152 28.7133 23.513 28.9793 23.75C29.2473 23.986 29.6193 24.062 29.9573 23.949C29.9813 23.941 31.9403 23.295 33.6413 23.075V26H31.6413V28H33.6413V34H31.6413V36H33.6413V38.312C31.8143 37.755 29.6773 37.733 29.3733 37.733C28.8213 37.733 28.3733 38.181 28.3733 38.733C28.3733 39.21 28.4213 43.438 30.0803 45.097C30.8573 45.874 31.8793 46.273 32.9093 46.273C33.1543 46.273 33.3983 46.242 33.6413 46.197V50H31.6413V52H33.6413V59C33.6413 59.552 34.0893 60 34.6413 60H38.6413C39.1933 60 39.6413 59.552 39.6413 59V56H41.6413V54H39.6413V48H41.6413V46H39.6413V44.686C39.7433 44.692 39.8453 44.711 39.9473 44.711C41.2473 44.711 42.5113 44.201 43.4693 43.242C45.8753 40.836 45.2463 35.88 45.1663 35.322C45.1033 34.882 44.7583 34.536 44.3173 34.474C44.2023 34.457 41.8913 34.141 39.6403 34.6V32H41.6403V30H39.6403V23.074C41.3413 23.295 43.3003 23.941 43.3243 23.948C43.6623 24.061 44.0343 23.985 44.3023 23.749C44.5693 23.512 44.6913 23.151 44.6203 22.803C44.3643 21.521 43.5473 19.514 42.0013 18.228C44.2723 16.543 45.6423 13.869 45.6423 11ZM43.6423 11C43.6423 13.365 42.4353 15.549 40.4773 16.838C41.2123 15.72 41.6423 14.398 41.6423 13C41.6423 11.283 41.1503 9.682 40.3123 8.316C41.0673 8.114 41.8453 8 42.6423 8H43.6423V11ZM41.6423 4V6.051C41.1603 6.094 40.6843 6.171 40.2153 6.276C39.9703 5.503 39.6303 4.779 39.2043 4.119C39.6773 4.043 40.1573 4 40.6423 4H41.6423ZM31.6423 2C34.2203 2 36.5123 3.418 37.7283 5.582C36.2803 4.586 34.5293 4 32.6423 4H31.6423V2ZM29.6423 6H32.6423C36.5023 6 39.6423 9.14 39.6423 13C39.6423 15.055 38.3733 16.892 36.4753 17.642C35.9663 17.246 35.3353 17 34.6423 17C33.8173 17 33.0943 17.185 32.4533 17.484C30.7553 16.654 29.6423 14.923 29.6423 13V6ZM34.6423 19C35.1933 19 35.6413 19.448 35.6423 19.999C35.6423 19.999 35.6423 19.999 35.6423 20C35.6423 20.001 35.6423 20 35.6423 20.001C35.6423 20.552 35.1933 21 34.6423 21C33.5683 21 32.2653 21.254 31.2173 21.513C31.7883 20.345 32.8383 19 34.6423 19ZM31.4963 43.682C30.8793 43.065 30.5323 41.281 30.4183 39.778C31.4153 39.854 32.7403 40.04 33.6433 40.435V44.124C32.9153 44.412 32.0713 44.258 31.4963 43.682ZM35.6423 58V22.816C36.0163 22.683 36.3533 22.481 36.6423 22.22C36.9313 22.481 37.2683 22.683 37.6423 22.816V58H35.6423ZM43.2653 36.383C43.3683 37.95 43.2683 40.617 42.0563 41.829C41.4083 42.477 40.5263 42.777 39.6423 42.688V40H41.6423V38H39.6423V36.654C40.9373 36.313 42.3973 36.328 43.2653 36.383ZM38.6423 21C38.0913 21 37.6433 20.552 37.6423 20.001C37.6423 20.001 37.6423 20.001 37.6423 20C37.6423 19.999 37.6423 20 37.6423 19.999C37.6423 19.448 38.0913 19 38.6423 19C40.4463 19 41.4963 20.345 42.0673 21.513C41.0193 21.254 39.7153 21 38.6423 21Z" fill="black"/>
</g>
<defs>
<filter id="filter0_d_8_279" x="0.0980225" y="0" width="76.1866" height="70.8676" filterUnits="userSpaceOnUse" color-interpolation-filters="sRGB">
<feFlood flood-opacity="0" result="BackgroundImageFix"/>
<feColorMatrix in="SourceAlpha" type="matrix" values="0 0 0 0 0 0 0 0 0 0 0 0 0 0 0 0 0 0 127 0" result="hardAlpha"/>
<feOffset dy="4"/>
<feGaussianBlur stdDeviation="2"/>
<feComposite in2="hardAlpha" operator="out"/>
<feColorMatrix type="matrix" values="0 0 0 0 0 0 0 0 0 0 0 0 0 0 0 0 0 0 0.25 0"/>
<feBlend mode="normal" in2="BackgroundImageFix" result="effect1_dropShadow_8_279"/>
<feBlend mode="normal" in="SourceGraphic" in2="effect1_dropShadow_8_279" result="shape"/>
</filter>
</defs>
</svg>
