<svg width="102" height="100" viewBox="0 0 102 100" fill="none" xmlns="http://www.w3.org/2000/svg">
<path d="M52.043 55.1735C51.7184 55.5038 51.29 55.6721 50.8601 55.6759C50.4302 55.6796 49.9989 55.5188 49.6685 55.1943L44.9374 50.5452L40.2882 55.2761C39.9636 55.6064 39.5351 55.7747 39.1052 55.7785C38.6753 55.7822 38.244 55.6214 37.9137 55.2968L24.3623 41.9805C20.4917 38.177 19.9846 32.2265 22.867 27.8586C18.8451 20.7733 19.9881 11.8478 25.7277 6.00738C32.4228 -0.805315 43.1788 -1.25856 50.4153 4.70372C57.5466 -1.38562 68.3105 -1.1185 75.1218 5.57632C82.3209 12.6506 82.4223 24.2606 75.3476 31.4595L52.043 55.1735ZM26.716 39.5853L39.0698 51.7249L51.2099 39.3716C54.2311 36.2972 54.1878 31.3335 51.1134 28.3124C49.5753 26.801 47.5653 26.0578 45.5636 26.0752C43.5619 26.0927 41.5652 26.8709 40.0537 28.4089C39.4028 29.0712 38.3415 29.0804 37.6792 28.4296C34.6047 25.4068 29.6408 25.4501 26.6195 28.5261C23.5983 31.6005 23.6416 36.5642 26.716 39.5853ZM72.768 7.97143C66.8901 2.19378 57.4089 2.27652 51.6327 8.15588C50.9819 8.81817 49.9206 8.82744 49.2582 8.1766C43.3803 2.39894 33.8992 2.48504 28.123 8.36104C23.6851 12.8769 22.6073 19.6523 25.2929 25.2697C29.2375 22.152 34.8053 22.0312 38.8367 25.0138C43.1825 21.6811 49.4475 21.9706 53.4671 25.9173C57.8645 30.2384 57.9264 37.328 53.6051 41.7253L47.2912 48.1501L50.8247 51.6223L72.9524 29.1059C78.7287 23.2282 78.6459 13.7474 72.768 7.97143Z" fill="black"/>
<path d="M13.975 62.7149C15.1236 62.7049 16.2451 62.853 17.3374 63.1256L17.3189 61.0064C17.3108 60.0778 18.0565 59.3207 18.9835 59.3126L82.7957 58.7557C83.7227 58.7476 84.4816 59.4916 84.4897 60.4202L84.5082 62.5394C85.5955 62.2478 86.7142 62.0801 87.8629 62.0701C95.2701 62.0055 101.35 67.9795 101.414 75.3865L101.429 77.0657C101.518 87.2501 93.3029 95.6092 83.1181 95.6981L80.9619 95.7169C78.8877 97.814 76.1247 99.1178 73.0718 99.1445L52.9206 99.3203C52.3681 99.3251 51.815 99.2628 51.2686 99.1853C50.7101 99.2791 50.1431 99.3446 49.5621 99.3496L29.4108 99.5255C26.3579 99.5521 23.5726 98.2968 21.4621 96.2362L19.3059 96.255C9.12113 96.3439 0.761612 88.1293 0.672735 77.945L0.658081 76.2658C0.593441 68.8588 6.56775 62.7796 13.975 62.7149ZM84.7043 85.0205C88.6266 83.5841 91.3762 79.7816 91.3386 75.4744C91.3225 73.6223 89.803 72.1292 87.9508 72.1453C86.0985 72.1615 84.6054 73.6809 84.6215 75.533L84.7043 85.0205ZM98.0704 77.095L98.0557 75.4158C98.0072 69.8593 93.4489 65.38 87.8922 65.4285C86.7318 65.4387 85.6101 65.6449 84.5387 66.0355L84.5711 69.7516C85.5585 69.1636 86.6922 68.7977 87.9215 68.7869C91.6259 68.7546 94.6648 71.7408 94.6972 75.4451C94.7514 81.6615 90.4594 87.1047 84.5323 88.594C84.3205 89.9175 83.9267 91.1737 83.3675 92.3239C91.5711 92.1011 98.1423 85.3349 98.0704 77.095ZM73.0425 95.7861C76.8377 95.7529 80.0253 92.887 81.0276 88.999L64.5876 89.1425L64.5582 85.7841L81.3509 85.6376L81.1458 62.1287L60.9945 62.3046L61.2056 86.4851C61.2381 90.2079 59.7828 93.5658 57.4522 95.9221L73.0425 95.7861ZM29.3815 96.1671L49.5327 95.9912C54.1625 95.9508 57.8923 91.6998 57.847 86.5144L57.636 62.3339L20.6921 62.6563L20.8972 86.1651L47.7655 85.9307L47.7949 89.2891L21.2792 89.5205C22.3491 93.3904 25.5864 96.2002 29.3815 96.1671ZM17.4508 76.1192C17.4346 74.2671 15.9152 72.774 14.0629 72.7901C12.2107 72.8063 10.7175 74.3257 10.7337 76.1779C10.7719 80.5555 13.6138 84.2538 17.5336 85.6067L17.4508 76.1192ZM4.03127 77.9157C4.10318 86.1555 10.7915 92.8061 18.996 92.8856C18.415 91.7403 17.9994 90.4862 17.7644 89.1615C11.8661 87.7856 7.4303 82.526 7.37516 76.2072C7.34283 72.5028 10.3292 69.4641 14.0336 69.4317C15.2628 69.421 16.4028 69.7671 17.4003 70.3361L17.3679 66.62C16.2898 66.2499 15.1647 66.0632 14.0043 66.0733C8.44761 66.1218 3.96813 70.68 4.01662 76.2365L4.03127 77.9157Z" fill="black"/>
<path d="M69.9581 66.7363L73.3169 66.707L73.3462 70.0654L69.9874 70.0947L69.9581 66.7363Z" fill="black"/>
</svg>
